<svg width="18" height="16" viewBox="0 0 18 16" fill="none" xmlns="http://www.w3.org/2000/svg">
    <path d="M17.2567 3.4116C16.9874 2.78811 16.5991 2.2231 16.1136 1.74821C15.6277 1.27191 15.0548 0.893397 14.4261 0.633259C13.7742 0.362442 13.0749 0.223823 12.369 0.225447C11.3786 0.225447 10.4123 0.496652 9.57253 1.00893C9.37163 1.13147 9.18079 1.26607 8.99998 1.41272C8.81918 1.26607 8.62833 1.13147 8.42744 1.00893C7.5877 0.496652 6.62141 0.225447 5.63101 0.225447C4.91784 0.225447 4.22677 0.362054 3.57387 0.633259C2.94306 0.89442 2.37454 1.27009 1.88637 1.74821C1.4002 2.22256 1.01184 2.7877 0.743286 3.4116C0.464045 4.06049 0.321411 4.74955 0.321411 5.4587C0.321411 6.12767 0.458018 6.82477 0.729224 7.53392C0.956233 8.12655 1.28168 8.74128 1.69753 9.36204C2.35646 10.3444 3.26248 11.369 4.38748 12.4076C6.25177 14.1292 8.09797 15.3185 8.17632 15.3667L8.65244 15.6721C8.86337 15.8067 9.13458 15.8067 9.34552 15.6721L9.82163 15.3667C9.89998 15.3165 11.7442 14.1292 13.6105 12.4076C14.7355 11.369 15.6415 10.3444 16.3004 9.36204C16.7163 8.74128 17.0437 8.12655 17.2687 7.53392C17.5399 6.82477 17.6765 6.12767 17.6765 5.4587C17.6786 4.74955 17.5359 4.06049 17.2567 3.4116Z" fill="#CCCCCC"/>
</svg>